<svg xmlns="http://www.w3.org/2000/svg" xmlns:xlink="http://www.w3.org/1999/xlink" viewBox="0 0 1000.76 1020.87"><defs><style>.cls-1{fill:none;}.cls-2{clip-path:url(#clip-path);}.cls-3{fill:#fff;}</style><clipPath id="clip-path" transform="translate(-66.55 -56.49)"><rect class="cls-1" width="1133.86" height="1133.86"/></clipPath></defs><title>Asset 2</title><g id="Layer_2" data-name="Layer 2"><g id="Layer_1-2" data-name="Layer 1"><g class="cls-2"><path class="cls-3" d="M523.46,58.35c275.81-23.79,518.19,183.87,542,464.83C1079.59,689.7,1012.72,853,886.71,959.72c-180.66,153-441,156.87-626.2,10.93C41.91,797.71,2.05,476.89,171.78,253.8A499.6,499.6,0,0,1,523.46,58.35m3.86,17.36C261.15,97.57,62.49,335.45,83.7,606.76s254.6,473.83,520.76,452c266.81-21.86,464.83-259.1,443.62-531.05A496.65,496.65,0,0,0,825,150.93,476,476,0,0,0,527.32,75.71" transform="translate(-66.55 -56.49)"/><path class="cls-3" d="M497.1,101.43c230.81-36,452,109.3,515,338.82,34.72,126.66,16.07,269.38-55.93,379.32-65.58,30.22-139.51,35.36-210.23,32.15-118.3-5.79-234-37.29-353-40.5-66.86-1.93-135.66,7.07-198,34.72C43.84,636.33,88.2,341.23,293.94,187.58c59.15-45,129.23-73.94,203.16-86.15m69.43,9c-9.64,28.93-18.65,57.86-28.29,87.44-30.22,0-60.43-.64-90.65.64,24.43,18,48.86,36,73.29,54.65-9,28.93-18.65,57.86-27.65,87.44l73.29-54,73.29,54c-9-28.93-18.65-58.51-27.65-87.44,24.43-18,48.86-36,73.29-54.65-30.22-.64-60.43,0-90.65,0-9.64-30.22-19.29-59.15-28.29-88.08M356.3,224.22c-3.21,14.79-5.14,29.57-8.36,44.36l-44.36,5.79,39.22,21.86c-2.57,14.79-5.14,30.22-7.71,44.36C346,330.3,356.94,320,367.87,309.09c12.86,7.07,25.72,14.79,39.22,21.22-6.43-13.5-12.86-27.65-19.29-41.15,10.93-10.29,21.86-21.22,32.15-31.5l-44.36,5.79c-6.43-11.57-12.86-25.07-19.29-39.22m401.18,41.15-44.36-5.79c10.93,10.93,21.22,21.22,32.15,31.5-6.43,13.5-12.86,27.65-19.29,41.15L765.2,311c10.93,10.29,21.86,21.22,32.79,31.5-3.21-14.79-5.14-30.22-7.71-45,12.86-7.07,25.72-14.79,39.22-21.86l-44.36-5.79c-3.22-14.79-5.14-30.22-8.36-44.36-6.43,12.86-12.86,26.36-19.29,39.86m-542,64.94,1.93,27-25.07,10.29L218.07,374,220,401a265.5,265.5,0,0,1,14.14-22.5l25.72,5.79-16.72-20.57,14.14-23.15-25.07,10.29A259.11,259.11,0,0,0,215.5,330.3m684.71,20.57-24.43-10.29,14.14,23.15c-5.79,7.07-11.57,13.5-17.36,20.57l25.72-5.79L912.43,401l1.93-27,25.72-6.43-24.43-10.29,1.93-27ZM283.65,397.81c-28.29,7.71-55.29,25.72-69.44,52.08-1.29,92.58,0,185.16-.64,278.38A212.26,212.26,0,0,0,283,759.77c28.93,7.71,58.51,5.79,88.08,3.86s59.79-9.64,81.65-30.22c34.07-30.22,44.36-83.58,26.36-126-9.64-23.79-30.86-40.5-53.36-50.79,22.5-14.14,39.86-38.57,38.58-66.22.64-49.51-41.79-92.58-88.72-97.72-30.22-3.22-61.72-3.22-91.94,5.14M411,390.74c33.43,12.22,55.29,43.08,66.86,75.86h44.36V764.27H598V466.6h41.79c22.5-34.07,54-63,92.58-75.86-107.37.64-214.73,0-321.46,0M742.05,401a165.62,165.62,0,0,0-93.87,84.22c-21.22,43.08-24.43,92.58-17.36,139.51,6.43,44.36,28.29,86.15,63.65,113.8,33.43,26.36,77.15,34.72,117.65,31.5,41.15-3.21,84.22-14.79,117-41.79V550.18H805.7v68.15h48.22v68.15c-25.07,17.36-58.51,17.36-86.79,7.07-30.86-12.22-52.08-43.08-58.51-75.22-6.43-32.79-4.5-66.86,7.71-97.72,11.57-28.29,35.36-51.43,64.93-57.22,36.65-9.64,74.58,6.43,102.22,30.22,10.93-21.22,21.22-42.43,32.79-63.65C870,386.88,799.92,381.74,742.05,401" transform="translate(-66.55 -56.49)"/><path class="cls-3" d="M303.58,476.89c19.29-23.79,63.65-19.93,76.51,9.64,5.14,16.07-1.93,38.57-19.93,43.08-20.57,5.79-41.79,2.57-63,3.21,1.29-18-4.5-39.22,6.43-55.93m-6.43,117.65c26.36,1.29,54-3.86,79.08,6.43,36.65,14.79,34.07,78.44-2.57,91.29-25.07,3.21-52.72,5.14-76.51-7.07Zm145.3,238.52c134.37,13.5,268.1,50.15,403.75,34.07A350.49,350.49,0,0,0,940.71,844c-23.79,31.5-48.86,61.72-80.36,85.51-25.07,4.5-50.15,1.93-74.58-.64-72.65-9.64-142.09-32.15-211.52-55.29-43.72-13.5-86.79-30.22-131.8-40.5M354.37,862c57.86,1.29,113.15,21.22,168.44,39.22,91.29,29.57,181.3,65.58,277.74,73.29-41.15,23.15-84.22,41.79-130.51,52.08-6.43,1.93-11.57-3.21-17.36-5.14C595.47,989.3,540.82,952.65,483.6,918.58,442.45,894.79,400,872.93,354.37,862m-72,77.15c40.5,2.57,81.65,8.36,118.3,26.36,41.79,18.64,78.44,45.65,115.73,71.36a478.73,478.73,0,0,1-234-97.72" transform="translate(-66.55 -56.49)"/></g></g></g></svg>