<svg xmlns="http://www.w3.org/2000/svg" viewBox="0 0 672.44 213.6"><defs><style>.cls-1{fill:#fff;}</style></defs><title>Asset 3</title><g id="Layer_2" data-name="Layer 2"><g id="Layer_1-2" data-name="Layer 1"><path class="cls-1" d="M194.67,75.22c-12.92-20.13-31.38-31-53.18-36.5a108.56,108.56,0,0,0-51-.38C62.8,44.5,42.77,67,40.17,95.22c-1.23,13.32-.32,26.31,4.46,38.83,8.82,23.07,26.52,35.92,50,40.46,9.42,1.82,19.61,1.32,29.23.09,16.66-2.14,29-16.53,28.6-31.57a23.35,23.35,0,0,0-8.69-17.81c-11.63-9.85-25.94-13.17-40.22-16.5-5.16-1.2-10.47-1.8-16.11-2.73h96.92c-.68,2.15-1.23,4.12-1.93,6-11,30.14-25.1,66.5-36,96.66a32,32,0,0,0-5.36,1c-33.11,7.72-64.94,4.73-93.51-14.28C12.38,171.95-2.56,137.8.35,96,3.79,46.63,46.26,5,97.43.59c37.33-3.17,70.84,6.5,100.35,29.7l10.66,8.36c-1.47,3.88-7.68,20.76-9.14,24.64S196.33,70.94,194.67,75.22Z"/><path class="cls-1" d="M153.44,209.65l76-206h38l32,123,33-123h38l76,206s-40.53-73.3-49-86c-18-27-25-39-36-39-6,0-9,4-13,15l-13,39c-6.55,21.84-21,67-21,67h-29l-40-127-48,131Z"/><path class="cls-1" d="M672.44,2.65l-76,206h-38l-32-123-33,123h-38l-76-206s40.53,73.3,49,86c18,27,25,39,36,39,6,0,9-4,13-15l13-39c6.55-21.84,21-67,21-67h29l40,127,48-131Z"/></g></g></svg>