<svg xmlns="http://www.w3.org/2000/svg" viewBox="0 0 273.37 175.16"><defs><style>.cls-1{fill:#fff;}</style></defs><title>Asset 5</title><g id="Layer_2" data-name="Layer 2"><g id="Layer_1-2" data-name="Layer 1"><path class="cls-1" d="M271.53,44.08c-7-28.29-28.2-43.93-59.59-43.92-3.67,0-7.33-.07-11,0a16.27,16.27,0,0,0-16.15,15.77c-.48,8.24,5.42,16,13.69,17,6.25.76,12.67.07,18.92.84,4.13.51,8.62,1.65,12,3.91,8.7,5.81,12,17.56,9.3,28-2.28,8.77-11,17.94-21.95,17.84-8.71-.07-15.17,7.06-15.9,15.67-.65,7.67,4.62,15.48,12.4,17.12a33,33,0,0,0,12.37.06C259.13,110.43,279.83,77.63,271.53,44.08Z"/><path class="cls-1" d="M179.47,42.76c-1.43-8.35-3.09-16.68-4.26-25.07-1.21-8.64-5.56-14.54-14-17-7.91-2.29-16.29,1-21.69,8.8-11.73,17-23.16,34.11-34.74,51.16a11.18,11.18,0,0,1-1.62,2,5.52,5.52,0,0,1-7.84,0,11.18,11.18,0,0,1-1.62-2C82.17,43.62,70.73,26.47,59,9.52,53.61,1.72,45.23-1.58,37.31.71c-8.41,2.44-12.75,8.34-14,17-1.18,8.39-2.83,16.71-4.26,25.07-6.27,36.53-12.6,73-18.75,109.6-1.9,11.3,4.5,20.85,14.57,22.5,11.3,1.85,20.22-5,22.25-16.88,4.49-26.21,9-52.41,13.75-78.58a11.19,11.19,0,0,1,1.37-4.25c.27-.53,2-3,4-2s3.84,3.28,5,5c7.45,11,14.24,21.66,21.55,32.79,4.26,6.47,10.36,9.63,16.45,9.5,6.08.12,12.19-3,16.45-9.5,7.32-11.12,14.11-21.75,21.55-32.79,1.16-1.72,2.92-4,5-5s3.73,1.47,4,2a11.19,11.19,0,0,1,1.37,4.25c4.73,26.17,9.26,52.37,13.75,78.58,2,11.87,11,18.74,22.25,16.88,10.07-1.65,16.47-11.21,14.57-22.5C192.07,115.81,185.74,79.29,179.47,42.76Z"/></g></g></svg>