<svg id="Layer_1" data-name="Layer 1" xmlns="http://www.w3.org/2000/svg" viewBox="0 0 800 800"><defs><style>.cls-1{fill:#fff;}</style></defs><title>NetEnt</title><polygon class="cls-1" points="545.32 553.46 545.32 445.28 739.03 445.28 739.03 352.2 545.32 352.2 545.32 246.54 769.22 246.54 769.22 153.46 545.32 153.46 495.01 153.46 495.01 0 454.75 0 454.75 633.96 454.75 646.54 454.75 800 479.91 800 479.91 646.54 495.01 646.54 771.74 646.54 771.74 553.46 545.32 553.46"/><polygon class="cls-1" points="311.36 453.89 307.05 447.08 122.68 153.46 120.16 153.46 110.73 153.46 32.11 153.46 32.11 188.68 32.11 196.23 32.11 646.54 130.23 646.54 130.23 347.6 318.91 646.54 409.47 646.54 409.47 611.32 409.47 606.29 409.47 153.46 311.36 153.46 311.36 453.89"/></svg>