<?xml version="1.0" encoding="utf-8"?>
<!-- Generator: Adobe Illustrator 16.0.0, SVG Export Plug-In . SVG Version: 6.00 Build 0)  -->
<!DOCTYPE svg PUBLIC "-//W3C//DTD SVG 1.1//EN" "http://www.w3.org/Graphics/SVG/1.1/DTD/svg11.dtd">
<svg version="1.1" id="Layer_1" xmlns="http://www.w3.org/2000/svg" xmlns:xlink="http://www.w3.org/1999/xlink" x="0px" y="0px"
	 width="360px" height="360px" viewBox="0 0 360 360" enable-background="new 0 0 360 360" xml:space="preserve">
<rect display="none" stroke="#000000" stroke-miterlimit="10" width="360" height="360"/>
<image display="none" overflow="visible" width="446" height="416" xlink:href="../../../../index.html"  transform="matrix(0.8072 0 0 0.8654 0 0)">
</image>
<g>
	<polygon fill="#FFFFFF" points="296.5,360 0,103 360,118 70.75,140.75 191.25,207 207.333,198.338 	"/>
	<polygon fill="#FFFFFF" points="359.002,117.958 204.443,199.895 296.5,360 246.5,208.75 	"/>
	<polygon fill="#FFFFFF" points="246.5,208.75 61,353.5 111.552,199.69 116,186.25 124.75,211.25 106.75,251.25 147.203,230.593 
		221.726,190.732 	"/>
	<polygon fill="#FFFFFF" points="177.333,1.333 116,186.25 124.75,211.25 180,88.667 207.667,201 246.5,208.75 	"/>
</g>
</svg>
