<svg xmlns="http://www.w3.org/2000/svg" viewBox="0 0 359.96 485.58"><defs><style>.cls-1{fill:#fff;}</style></defs><title>Asset 3</title><g id="Layer_2" data-name="Layer 2"><g id="RTG"><g id="RTG-2" data-name="RTG"><path class="cls-1" d="M129.8,423.08H14.31c-1.32,0-15.46-7.94-14.24-21.5C.79,393.64,8,305.5,15.31,215.81,40.32,222.47,127.34,257.53,129.8,423.08Z"/><path class="cls-1" d="M16.3,203.8C23.76,112.16,31.07,22.55,31.43,19c.73-7.29,3.28-19,17.86-19H166.6C159.9,39.64,127.86,177.89,16.3,203.8Z"/><path class="cls-1" d="M290.5,215.17c-8.39,95.09-16.77,189-17.46,192.61-1.83,9.48-9.1,15.3-16.4,15.3H140C143.48,401.31,171.42,254.61,290.5,215.17Z"/><path class="cls-1" d="M333.71,54.61v0c0,.86-33.34,375.73-35,384.25-1.83,9.48-9.1,15.3-16.4,15.3H50.67c-6.18,0-16.46-9.08-14.31-20.38h230c7.29,0,14.57-5.83,16.4-15.3,1.52-7.87,34.24-374,34.78-378.86C326.34,39.67,333.71,47.32,333.71,54.61Z"/><path class="cls-1" d="M360,93.66c0,7.29-27.16,367.13-29,376.61s-9.1,15.3-16.4,15.3H80.36c-7.65,0-15.71-5.11-14.23-21.5v0H295.88c7.29,0,14.57-5.83,16.4-15.3,1.75-9.09,32.43-346.62,34.84-379.55C354,72.52,360,80.52,360,93.66Z"/><path class="cls-1" d="M308,14.94c0,.26-15.46,176.76-16.58,189.57-17.25-3.74-110.77-32-113.71-204.52H294.9C300,0,308,7.65,308,14.94Z"/></g></g></g></svg>