<?xml version="1.0" encoding="utf-8"?>
<!-- Generator: Adobe Illustrator 16.0.0, SVG Export Plug-In . SVG Version: 6.00 Build 0)  -->
<!DOCTYPE svg PUBLIC "-//W3C//DTD SVG 1.1//EN" "http://www.w3.org/Graphics/SVG/1.1/DTD/svg11.dtd">
<svg version="1.1" id="Layer_1" xmlns="http://www.w3.org/2000/svg" xmlns:xlink="http://www.w3.org/1999/xlink" x="0px" y="0px"
	 width="131px" height="163px" viewBox="0 0 131 163" enable-background="new 0 0 131 163" xml:space="preserve">
<g transform="translate(0.000000,163.000000) scale(0.100000,-0.100000)">
</g>
<g>
	<path fill="#FFFFFF" d="M29.725,36.263c0,0,0,1.908,8.111-4.135c8.11-6.043,15.333-11.337,16.38-16.38
		c1.272-6.123,4.931-20.674-19.561-7.157C10.164,22.109,1.895,39.762,5.553,51.053C9.21,62.344,19.388,69.182,23.364,72.84
		c3.976,3.658,14.971,14.45,12.404,17.017c-1.272,1.272-5.089,3.181-3.657,5.726c1.431,2.545,1.59,3.34-1.432,6.202
		c-5.126,4.855-6.369,5.467-11.768,5.725c-0.954,0.046-0.794-1.589,1.909-3.18s8.994-5.407,9.029-6.839
		c0.036-1.432,1.307-4.452-8.871,0.159c-10.177,4.611-17.97,11.132-17.97,16.38s7.315,9.383,17.016,4.771
		c9.701-4.611,13.677-7.792,21.629-16.062c7.951-8.27,17.651-16.381,18.924-16.698c1.273-0.318-0.477,2.861-3.34,7.951
		c-2.862,5.09-3.975,7.635-0.158,6.998s8.747-5.566,14.79-21.947c0,0,12.244-5.725,16.38-6.68c0,0,4.93,15.585,5.288,18.329
		c0,0-18.487,10.974-18.011,24.094c0.478,13.12,11.688,21.23,20.754,29.938c9.064,8.707,14.193,15.348,21.111,14.293
		c6.918-1.054,2.743-8.448-6.321-10.477c0,0-23.497-20.872-28.864-30.414c-2.147-3.817-0.597-13.001,12.643-22.901
		c0,0,4.771-2.624,9.9-5.367c5.128-2.743,17.549-11.092,20.396-13.716c0,0-17.295,7.276-19.919,9.781S87.692,68.626,87.692,68.626
		S77.315,70.415,73.499,72.8c-3.817,2.386-16.937,7.038-23.497,13.478c0,0,0.596-3.816-1.67-7.514
		c-2.266-3.697-5.845-8.588-15.029-17.295S20.064,45.964,19.945,39.881s12.564-19.203,16.221-19.203
		c2.885,0,3.022,2.147,0.239,4.612c-2.784,2.465-7.236,7.156-6.759,10.655"/>
	<path fill="#FFFFFF" d="M62.963,81.167c0,0,3.339-9.44,7.474-22.64c4.136-13.2,10.179-38.168,10.179-45.96
		c0-7.792-0.795-9.064,2.067-9.064c2.863,0,8.904,5.406,9.7,7.156s-1.272,13.518,0,24.173c1.273,10.655,3.818,22.582,6.044,32.601
		c0,0,8.905,0.318,10.178,3.181c0,0-6.839-0.636-9.064-0.318c0,0,4.771,15.583,9.064,27.829s9.065,26.875,11.292,33.396
		c2.226,6.521,5.246,14.152,5.247,16.697s-2.539,12.694-10.572,10.8l-4.059-8.414c0,0,2.386,0.158,0.159-6.839
		c-2.226-6.997-20.676-60.898-22.424-71.4c-1.748-10.501-5.725-27.995-5.725-27.995s-9.343,34.765-14.173,43.236
		C63.521,96.076,62.963,81.167,62.963,81.167z"/>
	<path fill="#FFFFFF" d="M115.543,68.238c0,0-0.209,1.014,1.252,2.177c1.462,1.163,6.23,3.847,11.196-0.656
		c0,0-3.95-4.323-8.393-4.204C115.155,65.674,115.543,68.238,115.543,68.238z"/>
</g>
</svg>
