<svg xmlns="http://www.w3.org/2000/svg" viewBox="0 0 298.94 338.1"><defs><style>.cls-1{fill:#fff;}</style></defs><title>Asset 1</title><g id="Layer_2" data-name="Layer 2"><g id="Layer_1-2" data-name="Layer 1"><path class="cls-1" d="M48.68,244.68v27.91L227.34,169.1c-2.8-1.67-4.88-2.94-7-4.16-12.24-7.09-24.57-14-36.67-21.35-3.32-2-5.65-1.92-9,0Q90.14,192.83,5.43,241.8c-1.52.88-3.09,1.66-5.39,2.89,0-2.33,0-3.76,0-5.2Q0,133.26.05,27C.06,10.81,11.47-.88,26.8.05A28,28,0,0,1,38.55,3.64q44.66,25.49,89,51.53a7.55,7.55,0,0,1,3.17,5.28c.37,7,.26,14,.06,21,0,1.56-.77,3.84-1.92,4.53-15.14,9-30.41,17.79-46.54,27.15,0-8.33-.16-15.88.07-23.43.1-3.4-.9-5.39-4-7.09-9.74-5.34-19.27-11-29.43-16.92v94.54c1.81-1,3.35-1.75,4.83-2.61q60.7-35.16,121.36-70.37c2.61-1.52,4.58-2.11,7.6-.35,34,19.92,68.22,39.61,102.32,59.43,11.35,6.6,16.11,17.69,12.85,29.61-2,7.32-6.75,12.34-13.26,16.11q-81.91,47.34-163.73,94.83c-27.36,15.85-54.67,31.79-82.1,47.51-14.61,8.37-32.08,2.07-37.27-13.28a27.45,27.45,0,0,1-1.46-8.3q-.24-18.24,0-36.49c0-1.54,1.07-3.18,2-4.57.49-.75,1.64-1.09,2.5-1.59Z"/></g></g></svg>